<svg width="36" height="27" viewBox="0 0 36 27" fill="none" xmlns="http://www.w3.org/2000/svg">
<path d="M6.75 7.26923C6.75 6.99381 6.86853 6.72968 7.0795 6.53493C7.29048 6.34018 7.57663 6.23077 7.875 6.23077H23.625C23.9234 6.23077 24.2095 6.34018 24.4205 6.53493C24.6315 6.72968 24.75 6.99381 24.75 7.26923C24.75 7.54465 24.6315 7.80878 24.4205 8.00353C24.2095 8.19828 23.9234 8.30769 23.625 8.30769H7.875C7.57663 8.30769 7.29048 8.19828 7.0795 8.00353C6.86853 7.80878 6.75 7.54465 6.75 7.26923ZM19.125 12.4615C18.8266 12.4615 18.5405 12.5709 18.3295 12.7657C18.1185 12.9604 18 13.2246 18 13.5C18 13.7754 18.1185 14.0396 18.3295 14.2343C18.5405 14.4291 18.8266 14.5385 19.125 14.5385H23.625C23.9234 14.5385 24.2095 14.4291 24.4205 14.2343C24.6315 14.0396 24.75 13.7754 24.75 13.5C24.75 13.2246 24.6315 12.9604 24.4205 12.7657C24.2095 12.5709 23.9234 12.4615 23.625 12.4615H19.125ZM18 19.7308C18 19.4554 18.1185 19.1912 18.3295 18.9965C18.5405 18.8017 18.8266 18.6923 19.125 18.6923H23.625C23.9234 18.6923 24.2095 18.8017 24.4205 18.9965C24.6315 19.1912 24.75 19.4554 24.75 19.7308C24.75 20.0062 24.6315 20.2703 24.4205 20.4651C24.2095 20.6598 23.9234 20.7692 23.625 20.7692H19.125C18.8266 20.7692 18.5405 20.6598 18.3295 20.4651C18.1185 20.2703 18 20.0062 18 19.7308ZM7.875 12.4615C7.57663 12.4615 7.29048 12.5709 7.0795 12.7657C6.86853 12.9604 6.75 13.2246 6.75 13.5V19.7308C6.75 20.0062 6.86853 20.2703 7.0795 20.4651C7.29048 20.6598 7.57663 20.7692 7.875 20.7692H14.625C14.9234 20.7692 15.2095 20.6598 15.4205 20.4651C15.6315 20.2703 15.75 20.0062 15.75 19.7308V13.5C15.75 13.2246 15.6315 12.9604 15.4205 12.7657C15.2095 12.5709 14.9234 12.4615 14.625 12.4615H7.875ZM9 18.6923V14.5385H13.5V18.6923H9ZM0 4.15385C0 3.05218 0.474106 1.99563 1.31802 1.21663C2.16193 0.437636 3.30653 0 4.5 0H27C28.1935 0 29.3381 0.437636 30.182 1.21663C31.0259 1.99563 31.5 3.05218 31.5 4.15385V6.23077C32.6935 6.23077 33.8381 6.66841 34.682 7.4474C35.5259 8.2264 36 9.28295 36 10.3846V21.8077C36 23.1848 35.4074 24.5055 34.3525 25.4792C33.2976 26.453 31.8668 27 30.375 27H5.625C4.13316 27 2.70242 26.453 1.64752 25.4792C0.592632 24.5055 0 23.1848 0 21.8077V4.15385ZM29.25 4.15385C29.25 3.60301 29.0129 3.07474 28.591 2.68524C28.169 2.29574 27.5967 2.07692 27 2.07692H4.5C3.90326 2.07692 3.33097 2.29574 2.90901 2.68524C2.48705 3.07474 2.25 3.60301 2.25 4.15385V21.8077C2.25 22.6339 2.60558 23.4264 3.23851 24.0106C3.87145 24.5949 4.72989 24.9231 5.625 24.9231H30.375C31.2701 24.9231 32.1285 24.5949 32.7615 24.0106C33.3944 23.4264 33.75 22.6339 33.75 21.8077V10.3846C33.75 9.83378 33.5129 9.30551 33.091 8.91601C32.669 8.52651 32.0967 8.30769 31.5 8.30769V21.8077C31.5 22.0831 31.3815 22.3472 31.1705 22.542C30.9595 22.7367 30.6734 22.8462 30.375 22.8462C30.0766 22.8462 29.7905 22.7367 29.5795 22.542C29.3685 22.3472 29.25 22.0831 29.25 21.8077V4.15385Z" fill="#6A6A6A"/>
</svg>
