<svg width="28" height="25" viewBox="0 0 28 25" fill="none" xmlns="http://www.w3.org/2000/svg">
<path fill-rule="evenodd" clip-rule="evenodd" d="M4.15832 13.3918L13.037 22.2683C13.2656 22.4969 13.394 22.8069 13.394 23.1302C13.394 23.4534 13.2656 23.7634 13.037 23.992C12.8084 24.2206 12.4984 24.349 12.1751 24.349C11.8519 24.349 11.5419 24.2206 11.3133 23.992L0.357626 13.0363C0.244264 12.9233 0.154323 12.7889 0.0929559 12.641C0.0315885 12.4932 0 12.3346 0 12.1745C0 12.0144 0.0315885 11.8558 0.0929559 11.708C0.154323 11.5601 0.244264 11.4257 0.357626 11.3127L11.3133 0.356988C11.5419 0.128412 11.8519 0 12.1751 0C12.4984 0 12.8084 0.128412 13.037 0.356988C13.2656 0.585564 13.394 0.895579 13.394 1.21883C13.394 1.54209 13.2656 1.8521 13.037 2.08068L4.15832 10.9572H26.7827C27.1056 10.9572 27.4152 11.0855 27.6435 11.3137C27.8718 11.542 28 11.8517 28 12.1745C28 12.4973 27.8718 12.807 27.6435 13.0353C27.4152 13.2635 27.1056 13.3918 26.7827 13.3918H4.15832Z" fill="#6A6A6A"/>
</svg>
