<svg width="35" height="35" viewBox="0 0 35 35" fill="none" xmlns="http://www.w3.org/2000/svg">
<path d="M33.25 33.25L25.5292 25.5292M25.5292 25.5292C26.8499 24.2085 27.8975 22.6407 28.6122 20.9151C29.327 19.1896 29.6949 17.3401 29.6949 15.4724C29.6949 13.6047 29.327 11.7553 28.6122 10.0297C27.8975 8.30419 26.8499 6.73633 25.5292 5.41565C24.2085 4.09498 22.6407 3.04736 20.9151 2.33262C19.1896 1.61787 17.3401 1.25 15.4724 1.25C13.6047 1.25 11.7553 1.61787 10.0297 2.33262C8.30419 3.04736 6.73633 4.09498 5.41565 5.41565C2.74843 8.08287 1.25 11.7004 1.25 15.4724C1.25 19.2444 2.74843 22.862 5.41565 25.5292C8.08287 28.1964 11.7004 29.6949 15.4724 29.6949C19.2444 29.6949 22.862 28.1964 25.5292 25.5292Z" stroke="#6A6A6A" stroke-width="2.5" stroke-linecap="round" stroke-linejoin="round"/>
</svg>
